<?xml version="1.0" encoding="UTF-8"?>
<svg xmlns="http://www.w3.org/2000/svg" xmlns:xlink="http://www.w3.org/1999/xlink" width="44px" height="49px" viewBox="0 0 44 49" version="1.1">
<g id="surface1">
<path style="fill-rule:nonzero;fill:rgb(100%,14.901961%,9.411765%);fill-opacity:1;stroke-width:1;stroke-linecap:butt;stroke-linejoin:miter;stroke:rgb(100%,100%,100%);stroke-opacity:1;stroke-miterlimit:4;" d="M 0.502663 135.021524 L 125.493874 135.021524 L 125.493874 168.970026 L 0.502663 168.970026 Z M 0.502663 135.021524 " transform="matrix(0.295302,0,0,0.288235,0,0)"/>
<path style="fill-rule:nonzero;fill:rgb(100%,14.901961%,9.411765%);fill-opacity:1;stroke-width:1;stroke-linecap:butt;stroke-linejoin:miter;stroke:rgb(100%,100%,100%);stroke-opacity:1;stroke-miterlimit:4;" d="M 148.708984 155.119579 L 148.708984 118.040497 L 124.753107 135.021524 L 124.753107 168.970026 Z M 148.708984 155.119579 " transform="matrix(0.295302,0,0,0.288235,0,0)"/>
<path style=" stroke:none;fill-rule:nonzero;fill:rgb(38.039216%,67.45098%,81.960784%);fill-opacity:1;" d="M 43.914062 0.277344 L 37.058594 5.171875 L 0.148438 5.171875 L 9.035156 0.277344 Z M 43.914062 0.277344 "/>
<path style="fill-rule:nonzero;fill:rgb(21.960784%,56.078431%,72.156863%);fill-opacity:1;stroke-width:1;stroke-linecap:butt;stroke-linejoin:miter;stroke:rgb(100%,100%,100%);stroke-opacity:1;stroke-miterlimit:4;" d="M 0.502663 17.94324 L 125.493874 17.94324 L 125.493874 135.658482 L 0.502663 135.658482 Z M 0.502663 17.94324 " transform="matrix(0.295302,0,0,0.288235,0,0)"/>
<path style="fill-rule:nonzero;fill:rgb(10.588235%,29.411765%,47.45098%);fill-opacity:1;stroke-width:1;stroke-linecap:butt;stroke-linejoin:miter;stroke:rgb(100%,100%,100%);stroke-opacity:1;stroke-miterlimit:4;" d="M 148.708984 118.677455 L 148.708984 0.962213 L 124.753107 17.94324 L 124.753107 135.658482 Z M 148.708984 118.677455 " transform="matrix(0.295302,0,0,0.288235,0,0)"/>
<path style=" stroke:none;fill-rule:nonzero;fill:rgb(100%,100%,100%);fill-opacity:1;" d="M 16.375 34.304688 L 16.375 30.457031 L 14.015625 32.304688 Z M 16.375 34.304688 "/>
<path style=" stroke:none;fill-rule:nonzero;fill:rgb(100%,100%,100%);fill-opacity:1;" d="M 15.523438 32.8125 L 15.523438 31.757812 L 33.789062 31.757812 L 33.789062 32.8125 Z M 15.523438 32.8125 "/>
<path style=" stroke:none;fill-rule:nonzero;fill:rgb(100%,100%,100%);fill-opacity:1;" d="M 20.257812 24.832031 L 20.257812 28.675781 L 22.617188 26.832031 Z M 20.257812 24.832031 "/>
<path style=" stroke:none;fill-rule:nonzero;fill:rgb(100%,100%,100%);fill-opacity:1;" d="M 2.84375 27.378906 L 2.84375 26.324219 L 21.109375 26.324219 L 21.109375 27.378906 Z M 2.84375 27.378906 "/>
<path style=" stroke:none;fill-rule:nonzero;fill:rgb(100%,100%,100%);fill-opacity:1;" d="M 10.945312 17.316406 L 10.503906 18.875 L 9.054688 18.875 L 10.945312 12.8125 L 12.789062 12.8125 L 14.722656 18.875 L 13.203125 18.875 L 12.722656 17.316406 Z M 12.519531 16.292969 L 12.132812 15.003906 C 12.023438 14.644531 11.914062 14.195312 11.820312 13.835938 L 11.800781 13.835938 C 11.710938 14.195312 11.617188 14.65625 11.515625 15.003906 L 11.148438 16.292969 Z M 12.519531 16.292969 "/>
<path style=" stroke:none;fill-rule:nonzero;fill:rgb(100%,100%,100%);fill-opacity:1;" d="M 15.589844 17.460938 C 15.957031 17.648438 16.546875 17.839844 17.148438 17.839844 C 17.792969 17.839844 18.132812 17.578125 18.132812 17.183594 C 18.132812 16.804688 17.839844 16.589844 17.089844 16.335938 C 16.058594 15.976562 15.378906 15.417969 15.378906 14.539062 C 15.378906 13.503906 16.269531 12.722656 17.726562 12.722656 C 18.4375 12.722656 18.945312 12.855469 19.3125 13.027344 L 19 14.125 C 18.757812 14.007812 18.308594 13.835938 17.707031 13.835938 C 17.101562 13.835938 16.804688 14.117188 16.804688 14.421875 C 16.804688 14.808594 17.148438 14.980469 17.957031 15.277344 C 19.054688 15.671875 19.5625 16.230469 19.5625 17.082031 C 19.5625 18.101562 18.769531 18.964844 17.0625 18.964844 C 16.355469 18.964844 15.652344 18.773438 15.304688 18.585938 Z M 15.589844 17.460938 "/>
<path style=" stroke:none;fill-rule:nonzero;fill:rgb(100%,100%,100%);fill-opacity:1;" d="M 21.96875 17.316406 L 21.523438 18.875 L 20.078125 18.875 L 21.964844 12.8125 L 23.808594 12.8125 L 25.746094 18.875 L 24.222656 18.875 L 23.746094 17.316406 Z M 23.542969 16.292969 L 23.15625 15.003906 C 23.042969 14.644531 22.933594 14.195312 22.84375 13.835938 L 22.824219 13.835938 C 22.730469 14.195312 22.640625 14.65625 22.539062 15.003906 L 22.167969 16.292969 Z M 23.542969 16.292969 "/>
</g>
</svg>
