<?xml version="1.0" encoding="utf-8"?>
<!-- Generator: Adobe Illustrator 15.1.0, SVG Export Plug-In  -->
<!DOCTYPE svg PUBLIC "-//W3C//DTD SVG 1.1//EN" "http://www.w3.org/Graphics/SVG/1.1/DTD/svg11.dtd" [
	<!ENTITY ns_flows "http://ns.adobe.com/Flows/1.0/">
]>
<svg version="1.1"
	 xmlns="http://www.w3.org/2000/svg" xmlns:xlink="http://www.w3.org/1999/xlink" xmlns:a="http://ns.adobe.com/AdobeSVGViewerExtensions/3.0/"
	 x="0px" y="0px" width="168px" height="102px" viewBox="0 0 168 102" enable-background="new 0 0 168 102" xml:space="preserve">
<defs>
</defs>
<path id="_x32__1_" fill="#FFFFFF" d="M59.028,12.475c-29.04-5.798-44.366,9.074-41.946,21.931l0.195,0.701
	c-22.63,3.852-18.831,27.758-5.843,30.556l1.069-0.031c2.58,15.552,23.711,25.318,38.458,18.938l0.947-1.037
	c5.258,11.286,21.334,16.845,39.807,17.314c16.01,0.409,27.955-4.53,34.82-11.547l1.059,0.311
	c25.624,2.061,37.295-15.639,31.692-28.347l1.378-0.39c8.736-2.309,9.745-22.475-5.242-25.46l0.288-0.78
	c6.507-13.12-8.839-25.491-30.134-23.167l-1.476-0.768C108.859-3.105,69.365-2.002,59.904,12.796L59.028,12.475z"/>
<path id="_x31__1_" fill="#007EBA" d="M93.557,101.858c-0.616,0-1.238-0.009-1.867-0.024c-19.955-0.506-34.412-6.526-40.013-16.583
	l-0.129,0.142l-0.194,0.084c-3.161,1.367-6.658,2.062-10.395,2.062c-12.154,0-26.573-7.964-29.271-20.894l-0.345,0.01l-0.117-0.024
	C4.665,65.216-0.16,58.499,0.004,51.005c0.143-6.581,4.462-14.308,16.065-16.677c-0.804-4.825,0.641-9.698,4.073-13.837
	c5.426-6.542,15.094-10.295,26.525-10.295c3.976,0,8.2,0.44,12.554,1.31l0.297,0.096C65.595,3.064,80.179,0,92.013,0
	c13.555,0,25.747,3.691,32.655,9.88l1.101,0.572c1.656-0.17,3.314-0.257,4.935-0.257c11.409,0,21.132,4.249,25.374,11.089
	c2.568,4.14,2.81,8.895,0.691,13.429c7.987,2.151,11.051,9.146,11.222,14.684c0.191,6.168-2.718,11.281-7.073,12.432l-0.305,0.086
	c1.924,5.308,1.116,11.417-2.239,16.563c-5.662,8.684-17.114,13.217-30.858,12.117l-0.2-0.037l-0.494-0.145
	C119.31,97.799,107.527,101.858,93.557,101.858z M52.178,81.771l0.626,1.345c4.651,9.982,19.207,16.242,38.937,16.743
	c0.61,0.016,1.217,0.023,1.816,0.023c13.698,0,25.159-4.004,32.272-11.272l0.415-0.425l1.529,0.449
	c12.963,1.009,23.7-3.19,28.944-11.234c3.262-5.003,3.867-10.738,1.664-15.737l-0.458-1.04l2.472-0.699
	c3.423-0.905,5.778-5.304,5.619-10.464c-0.164-5.315-3.083-11.542-10.785-13.075l-1.134-0.227l0.729-1.962
	c2.016-4.065,1.868-8.169-0.427-11.869c-3.886-6.263-12.965-10.154-23.695-10.154c-1.646,0-3.335,0.093-5.02,0.277l-0.298,0.032
	l-1.948-1.05c-6.537-5.92-18.285-9.455-31.425-9.455c-14.591,0-26.868,4.456-31.276,11.352l-0.427,0.668l-1.55-0.567
	c-4.2-0.834-8.268-1.257-12.092-1.257c-10.842,0-19.955,3.492-25.004,9.58c-3.131,3.775-4.414,8.204-3.61,12.47l0.469,1.674
	l-1.079,0.184C7.93,37.701,2.149,43.295,1.98,51.048c-0.143,6.52,3.954,12.353,9.548,13.624l1.81-0.054l0.141,0.852
	c2.059,12.409,15.868,20.092,27.48,20.092c3.389,0,6.556-0.612,9.417-1.816L52.178,81.771z"/>
</svg>
