<?xml version="1.0" encoding="UTF-8"?>
<svg xmlns="http://www.w3.org/2000/svg" xmlns:xlink="http://www.w3.org/1999/xlink" width="101px" height="51px" viewBox="0 0 101 51" version="1.1">
<g id="surface1">
<path style="fill-rule:evenodd;fill:rgb(7.058824%,42.745098%,60%);fill-opacity:1;stroke-width:0.787;stroke-linecap:round;stroke-linejoin:miter;stroke:rgb(100%,100%,100%);stroke-opacity:1;stroke-miterlimit:4;" d="M 56.663328 36.59421 L 56.663328 18.495175 L 0.39341 18.495175 L 0.39341 36.59421 Z M 56.663328 36.59421 " transform="matrix(1.311688,0,0,1.307692,0.655844,0.653846)"/>
<path style="fill-rule:evenodd;fill:rgb(7.058824%,42.745098%,60%);fill-opacity:1;stroke-width:0.787;stroke-linecap:round;stroke-linejoin:miter;stroke:rgb(100%,100%,100%);stroke-opacity:1;stroke-miterlimit:4;" d="M 0.000309406 18.495175 L 22.82097 -0.0011489 L 75.156907 -0.0011489 L 56.267249 18.495175 Z M 56.663328 37.379825 L 75.156907 16.920956 L 75.156907 -0.0011489 L 56.663328 18.495175 Z M 56.663328 37.379825 " transform="matrix(1.311688,0,0,1.307692,0.655844,0.653846)"/>
<path style=" stroke:none;fill-rule:evenodd;fill:rgb(100%,100%,100%);fill-opacity:1;" d="M 44.011719 18.664062 L 42.460938 19.691406 L 24.398438 19.691406 L 22.335938 21.75 L 17.171875 19.691406 L 27.496094 16.605469 L 25.429688 18.664062 Z M 58.464844 9.402344 L 56.914062 10.945312 L 38.847656 10.945312 L 36.785156 12.488281 L 31.625 10.429688 L 41.945312 7.855469 L 39.882812 9.398438 L 58.464844 9.398438 Z M 47.109375 15.574219 L 48.65625 14.546875 L 67.238281 14.546875 L 68.785156 12.488281 L 73.945312 14.546875 L 64.140625 17.632812 L 65.6875 15.574219 Z M 56.914062 6.3125 L 58.464844 5.285156 L 76.527344 5.285156 L 78.59375 3.226562 L 83.753906 5.796875 L 73.429688 8.371094 L 75.496094 6.3125 Z M 56.914062 6.3125 "/>
</g>
</svg>
