<svg xmlns="http://www.w3.org/2000/svg" xmlns:xlink="http://www.w3.org/1999/xlink" width="49" height="49" stroke="#000" stroke-linecap="round" stroke-linejoin="round" fill="#fff" fill-rule="evenodd"><style><![CDATA[.B{stroke-linejoin:miter}.C{fill:#036c9b}.D{stroke:#fff}.E{stroke-width:.7872}.F{stroke:none}.G{stroke-linecap:square}]]></style><g class="B C D E"><path d="M.3936 47.997V5.9473h42.4463V47.997H.3936z"/><path d="M48.3936 42.8399V.3936l-5.5537 5.5537v42.0496l5.5537-5.157zM7.9308.3936L.3936 5.5506h42.4463l5.5537-5.157H7.9308z"/></g><g class="F C"><path d="M42.8399 5.9473H.3936z"/><path d="M42.8399 5.9473V47.997z"/></g><path d="M42.8399 5.9473V47.997" fill="none" class="B D E G"/><path d="M42.8399 5.9473H.3936z" class="C F"/><path d="M42.8399 5.9473H.3936" fill="none" class="B D E G"/><path d="M42.8399 5.9473L48.3936.3936z" class="C F"/><path d="M42.8399 5.9473L48.3936.3936" fill="none" class="B D E G"/><g class="F"><path d="M22.6085 20.6251v-9.124h1.5867L21.815 8.3276l-1.9834 3.1735h1.1901v9.124h1.5868zm-4.7604 1.5868l-6.3471-6.7438 1.1901-.7934-3.967-.7934.7935 3.9669.7933-1.19 6.7438 6.347.7934-.7933zm-2.3802 4.3636h-9.124v-1.5868l-3.1735 1.9835 3.1735 2.3802v-1.5867h9.124v-1.1902zm1.5868 4.3637l-6.7438 6.7438-.7933-1.1901-.7935 3.9669 3.967-.7933-1.1901-1.1902 6.3471-6.3471-.7934-1.19zm3.967 2.3801v9.124h-1.1901l1.9834 3.5703 2.3802-3.5703h-1.5867v-9.124h-1.5868zm4.7603-1.1901l6.7438 6.3471-1.1901 1.1902 3.9669.7933-.7933-3.9669-1.1901 1.1901-6.3472-6.7438-1.19 1.19zm2.3802-4.3635h9.1239v1.5867l3.5703-2.3802-3.5703-1.9835v1.5868h-9.1239v1.1902zm-1.1902-4.7605l6.3472-6.347 1.1901 1.19.7933-3.9669-3.9669.7934 1.1901.7934-6.7438 6.7438 1.19.7933z"/><use xlink:href="#B" fill="red"/></g><use xlink:href="#B" stroke="#036c9b" fill="none" stroke-width=".7871" class="B"/><defs ><path id="B" d="M27.364 34.9123c4.3636-3.1735 5.5536-9.1239 2.3801-13.4875-2.7769-4.3636-8.7272-5.1569-13.0908-2.3801-4.3636 3.1736-5.5537 9.1239-2.3801 13.4875s9.1238 5.5537 13.0908 2.3801z"/></defs></svg>