<?xml version="1.0" encoding="UTF-8"?>
<svg xmlns="http://www.w3.org/2000/svg" xmlns:xlink="http://www.w3.org/1999/xlink" width="72px" height="55px" viewBox="0 0 72 55" version="1.1">
<g id="surface1">
<path style="fill-rule:evenodd;fill:rgb(5.882353%,45.098039%,62.745098%);fill-opacity:1;stroke-width:0.787;stroke-linecap:round;stroke-linejoin:miter;stroke:rgb(100%,100%,100%);stroke-opacity:1;stroke-miterlimit:4;" d="M 49.572537 44.459659 L 49.572537 35.01527 L -0.000651042 35.01527 L -0.000651042 44.459659 Z M 49.572537 44.459659 " transform="matrix(1.220339,0,0,1.037736,0.610169,0.518868)"/>
<path style="fill:none;stroke-width:0.787;stroke-linecap:square;stroke-linejoin:miter;stroke:rgb(100%,100%,100%);stroke-opacity:1;stroke-miterlimit:4;" d="M 34.23036 40.130824 L 46.819716 40.130824 " transform="matrix(1.220339,0,0,1.037736,0.610169,0.518868)"/>
<path style="fill:none;stroke-width:0.787;stroke-linecap:square;stroke-linejoin:miter;stroke:rgb(100%,100%,100%);stroke-opacity:1;stroke-miterlimit:4;" d="M 34.23036 39.735582 L 46.819716 39.735582 " transform="matrix(1.220339,0,0,1.037736,0.610169,0.518868)"/>
<path style="fill-rule:evenodd;fill:rgb(5.882353%,45.098039%,62.745098%);fill-opacity:1;stroke-width:0.787;stroke-linecap:round;stroke-linejoin:miter;stroke:rgb(100%,100%,100%);stroke-opacity:1;stroke-miterlimit:4;" d="M 57.834201 35.410511 L 57.834201 27.148082 L 49.572537 35.01527 L 49.572537 44.459659 Z M 40.917155 51.931605 L 40.917155 49.96669 L 45.244846 43.669176 L 45.244846 47.606534 Z M 40.917155 51.931605 " transform="matrix(1.220339,0,0,1.037736,0.610169,0.518868)"/>
<path style="fill-rule:evenodd;fill:rgb(5.882353%,45.098039%,62.745098%);fill-opacity:1;stroke-width:0.787;stroke-linecap:round;stroke-linejoin:miter;stroke:rgb(100%,100%,100%);stroke-opacity:1;stroke-miterlimit:4;" d="M 40.917155 49.96669 L 40.917155 51.931605 L 1.180501 51.931605 L 1.180501 49.96669 Z M 40.917155 49.96669 " transform="matrix(1.220339,0,0,1.037736,0.610169,0.518868)"/>
<path style="fill-rule:evenodd;fill:rgb(5.882353%,45.098039%,62.745098%);fill-opacity:1;stroke-width:0.787;stroke-linecap:round;stroke-linejoin:miter;stroke:rgb(100%,100%,100%);stroke-opacity:1;stroke-miterlimit:4;" d="M 40.917155 49.96669 L 1.180501 49.96669 L 5.508192 43.669176 L 45.244846 43.669176 Z M 57.834201 27.148082 L 8.261013 27.148082 L -0.000651042 35.01527 L 49.572537 35.01527 Z M 57.834201 27.148082 " transform="matrix(1.220339,0,0,1.037736,0.610169,0.518868)"/>
<path style="fill-rule:evenodd;fill:rgb(5.882353%,45.098039%,62.745098%);fill-opacity:1;stroke-width:0.787;stroke-linecap:round;stroke-linejoin:miter;stroke:rgb(100%,100%,100%);stroke-opacity:1;stroke-miterlimit:4;" d="M 42.885742 30.294957 L 42.885742 5.50767 L 9.048448 5.50767 L 9.048448 30.294957 Z M 42.885742 30.294957 " transform="matrix(1.220339,0,0,1.037736,0.610169,0.518868)"/>
<path style="fill-rule:evenodd;fill:rgb(5.882353%,45.098039%,62.745098%);fill-opacity:1;stroke-width:0.787;stroke-linecap:round;stroke-linejoin:miter;stroke:rgb(100%,100%,100%);stroke-opacity:1;stroke-miterlimit:4;" d="M 11.798069 11.02223 C 11.798069 8.270597 14.160373 7.875355 14.160373 7.875355 L 36.97678 7.875355 C 40.126519 7.875355 40.126519 11.02223 40.126519 11.02223 L 40.126519 25.186932 C 40.126519 26.760369 37.370497 27.547088 37.370497 27.547088 L 14.55089 27.547088 C 12.585503 27.547088 11.798069 25.186932 11.798069 25.186932 Z M 11.798069 11.02223 " transform="matrix(1.220339,0,0,1.037736,0.610169,0.518868)"/>
<path style="fill-rule:evenodd;fill:rgb(5.882353%,45.098039%,62.745098%);fill-opacity:1;stroke-width:0.787;stroke-linecap:round;stroke-linejoin:miter;stroke:rgb(100%,100%,100%);stroke-opacity:1;stroke-miterlimit:4;" d="M 48.785102 0.000639205 L 14.557292 0.000639205 L 9.048448 5.50767 L 42.885742 5.50767 Z M 48.785102 0.000639205 " transform="matrix(1.220339,0,0,1.037736,0.610169,0.518868)"/>
<path style="fill-rule:evenodd;fill:rgb(4.313725%,44.313725%,62.352941%);fill-opacity:1;stroke-width:0.787;stroke-linecap:round;stroke-linejoin:miter;stroke:rgb(100%,100%,100%);stroke-opacity:1;stroke-miterlimit:4;" d="M 48.788303 25.179403 L 48.788303 0.000639205 L 42.885742 5.50767 L 42.885742 30.294957 Z M 48.788303 25.179403 " transform="matrix(1.220339,0,0,1.037736,0.610169,0.518868)"/>
</g>
</svg>
